<svg width="301" height="373" viewBox="0 0 301 373" fill="none" xmlns="http://www.w3.org/2000/svg">
<mask id="mask0_3_147" style="mask-type:luminance" maskUnits="userSpaceOnUse" x="0" y="0" width="301" height="373">
<path d="M300.785 0.952087H0.634369V372.468H300.785V0.952087Z" fill="white"/>
</mask>
<g mask="url(#mask0_3_147)">
<path fill-rule="evenodd" clip-rule="evenodd" d="M174.473 315.166L191.188 206.616L190.91 206.579C190.667 208.135 189.551 211.207 184.548 211.733C178.631 212.355 177.338 207.261 177.105 205.967L176.792 206.028L160.34 316.014L160.067 316.933L161.76 317.437L168.5 319.448L174.973 316.151L174.473 315.166ZM184.96 216.045C184.994 215.627 184.684 215.261 184.266 215.227C183.849 215.193 183.483 215.503 183.449 215.921C180.897 247.053 176.63 278.02 170.668 308.683C170.588 309.094 170.857 309.491 171.267 309.572C171.678 309.651 172.076 309.383 172.156 308.972C178.129 278.255 182.403 247.232 184.96 216.045Z" fill="url(#paint0_linear_3_147)"/>
<path d="M245.531 175.137L250.887 172.141L246.491 196.849C242.388 196.632 239.235 213.594 239.119 221.538L239.124 221.563C235.219 222.449 231.445 223.838 227.897 225.696C226.452 226.459 225.011 227.323 223.986 228.596C222.96 229.87 222.424 231.643 222.985 233.18C223.546 234.716 225.85 235.989 227.351 235.332L227.376 235.378C227.26 235.438 227.149 235.509 227.033 235.574C224.895 236.858 222.632 238.819 222.894 241.295C223.142 243.598 226.274 245.109 228.321 244.028L228.336 244.053C227.695 244.422 227.063 244.801 226.431 245.187C225.542 245.728 224.626 246.32 224.092 247.213C223.557 248.105 223.526 249.401 224.309 250.093C225.047 250.745 226.163 250.644 227.128 250.471C230.442 249.934 233.698 249.092 236.855 247.955L236.981 248.293L232.681 273.517L230.2 288.059L174.974 316.153L174.473 315.168L191.187 206.616L190.91 206.574C190.957 206.274 190.978 205.97 190.97 205.665L245.531 175.137Z" fill="url(#paint1_linear_3_147)"/>
<path d="M215.836 150.468C216.329 150.539 216.828 150.565 217.326 150.549L217.346 151.095C217.013 153.32 216.164 156.623 214.026 157.618C212.677 158.245 211.088 158.033 209.605 157.806C207.579 157.498 205.551 157.188 203.521 156.876C202.167 156.673 200.667 156.38 199.883 155.32C199.07 154.213 199.691 152.783 199.99 151.457C200.264 150.322 200.596 149.201 200.985 148.099C202.202 148.539 203.468 148.825 204.754 148.953L215.836 150.468Z" fill="url(#paint2_linear_3_147)"/>
<path d="M199.313 142.308C200.069 142.869 201.228 143.056 202.824 143.187C208.004 143.617 213.229 143.775 218.423 144.069C219.099 144.128 219.78 144.116 220.454 144.033L221.849 144.069C222.369 147.007 221.707 149.768 219.57 150.269C218.834 150.443 218.082 150.538 217.326 150.552C216.828 150.568 216.329 150.541 215.836 150.471L204.753 148.955C203.466 148.827 202.2 148.54 200.984 148.101C200.402 147.871 199.863 147.544 199.389 147.135C197.974 145.897 197.656 143.392 199.268 142.371L199.313 142.308Z" fill="url(#paint3_linear_3_147)"/>
<path d="M88.7751 358.819C86.3252 356.93 84.4437 354.402 83.3375 351.512C82.2318 348.622 81.9442 345.484 82.5068 342.441C83.0693 339.399 84.46 336.57 86.5263 334.267C88.5925 331.964 91.2535 330.275 94.2173 329.387C95.1874 329.345 96.1575 329.326 97.1075 329.316C107.784 329.179 118.459 329.044 129.133 328.911C132.599 328.866 136.454 329.311 139.749 328.012L139.784 328.096C143.559 326.763 148.258 327.743 151.982 329.88L151.871 330.077C146.97 332.068 141.628 332.265 136.288 332.038C134.231 331.954 132.174 331.8 130.143 331.669C128.653 331.568 127.142 331.487 125.631 331.452C121.433 331.335 117.213 331.558 113.307 332.735C111.701 333.21 110.155 333.867 108.699 334.695C104.833 336.913 101.559 341.199 102.559 345.539C103.393 349.157 106.855 351.527 110.255 353.017C111.703 353.649 113.188 354.193 114.702 354.644C118.551 355.774 122.527 356.416 126.536 356.554C129.486 356.673 132.441 356.587 135.378 356.297C137.147 356.125 138.91 355.892 140.663 355.609C147.323 354.538 153.877 352.755 160.394 350.981L160.717 351.031C160.091 354.729 158.884 358.303 157.14 361.622L157.308 362.739C153.018 363.391 148.716 363.952 144.403 364.422C129.688 366.044 114.646 366.726 100.215 363.421C96.2029 362.501 92.1456 361.196 88.5631 359.207L88.7751 358.819Z" fill="url(#paint4_linear_3_147)"/>
<path d="M124.409 105.063C125.979 103.61 127.847 102.516 129.883 101.858C131.918 101.199 134.073 100.991 136.197 101.248C137.066 101.36 138.021 101.612 138.486 102.36C138.669 102.702 138.76 103.087 138.747 103.476C138.735 103.864 138.62 104.243 138.415 104.573C137.997 105.227 137.446 105.787 136.798 106.215C135.042 107.526 133.127 108.609 131.099 109.439C133.492 108.843 136.339 109.07 138.729 109.676C139.84 109.954 141.083 110.551 141.285 111.678C141.498 112.885 140.381 113.903 139.31 114.497C135.505 116.619 131.082 116.867 126.677 116.386C124.701 116.158 122.738 115.831 120.796 115.406C114.611 114.097 108.16 112.44 102.085 114.183C99.7253 114.86 97.3657 116.194 96.3599 118.432C95.6827 119.948 95.7084 121.676 95.7487 123.339C95.8448 127.315 95.9426 131.29 96.0425 135.264H95.9514C94.9813 136.143 94.5115 137.426 93.986 138.629C93.4604 139.831 92.7631 141.069 91.5709 141.62C91.2753 141.78 90.9425 141.856 90.607 141.842C90.2716 141.828 89.9463 141.723 89.6659 141.539C89.0643 141.064 88.9988 140.185 89.0442 139.417C89.1197 138.225 89.3422 137.048 89.7062 135.911C89.4052 136.343 89.0324 136.72 88.6046 137.027C87.3919 137.876 85.4063 137.765 84.7543 136.439C84.2086 135.322 84.8303 134.019 85.4062 132.917C87.781 128.355 89.5143 123.388 89.856 118.259C89.9723 116.506 89.927 114.737 90.22 113.009C90.513 111.28 91.1855 109.538 92.4869 108.36C93.9561 107.036 96.019 106.602 97.9945 106.44C101.294 106.172 104.609 106.524 107.918 106.395C111.228 106.265 114.649 105.586 117.256 103.545C119.545 101.756 121.097 99.0075 123.734 97.7896C124.81 97.2892 126.362 97.2338 126.922 98.28C127.162 98.8538 127.185 99.4953 126.988 100.085C126.54 101.923 125.626 103.614 124.335 104.997L124.409 105.063Z" fill="#FF8609"/>
<path d="M117.463 251.729C116.553 249.475 113.911 249.49 111.52 249.94L111.51 249.91C112.051 249.728 112.592 249.536 113.132 249.339C114.254 248.929 115.399 248.485 116.285 247.681C117.171 246.878 117.746 245.62 117.427 244.468C117.089 243.27 115.876 242.492 114.648 242.295C113.42 242.098 112.171 242.376 110.959 242.648C107.018 243.533 103.072 244.619 99.1309 245.554L99.1255 245.524C99.2619 244.768 99.3731 244.023 99.4693 243.285H99.4844L105.725 188.188L110.485 189.356L177.064 205.666C177.064 205.666 177.074 205.773 177.109 205.964L176.796 206.025L160.344 316.011L160.071 316.93L93.24 296.977L93.9171 290.877L96.095 271.176L96.0744 270.934C101.337 270.524 106.524 269.425 111.501 267.665C113.173 267.063 114.851 266.341 116.119 265.104C117.386 263.867 118.17 261.987 117.68 260.283C117.19 258.58 114.783 257.135 113.173 257.878L113.152 257.823C114.322 257.415 115.397 256.772 116.31 255.934C117.405 254.851 118.032 253.159 117.463 251.729Z" fill="url(#paint5_linear_3_147)"/>
<path d="M26.0637 279.277C32.1779 283.132 39.8026 283.536 47.0381 283.536C51.3334 283.536 55.7396 283.395 60.181 283.132L60.186 283.183C90.8014 290.171 91.2766 290.232 93.4188 290.823L93.9142 290.879L93.237 296.978L160.068 316.931L161.76 317.435L161.718 317.572C156.281 319.712 143.786 325.949 140.764 327.551C140.435 327.726 140.096 327.88 139.748 328.013C136.454 329.311 132.598 328.867 129.132 328.912C118.456 329.049 107.781 329.183 97.1071 329.316C96.1571 329.327 95.187 329.347 94.2168 329.387C89.6592 329.579 85.0356 330.277 81.6856 333.243C79.2349 335.411 77.9969 338.468 77.7816 341.701L77.4277 341.681C59.0047 341.767 41.7693 339.19 24.0084 334.283C16.3887 332.176 8.25861 329.135 4.22147 322.339C1.04323 316.978 1.08353 310.277 2.3215 304.168C3.99395 295.892 8.09699 287.777 15.1155 283.073C22.9778 277.807 25.6523 279.055 25.6523 279.055L25.6724 279.02C25.8009 279.11 25.9323 279.19 26.0637 279.277Z" fill="#FF8609"/>
<path d="M115.532 165.632C113.288 163.257 114.482 157.698 116.689 155.289C118.895 152.88 122.621 152.172 124.359 149.403C126.117 146.608 125.592 142.157 125.739 138.862C126.067 131.399 126.377 123.938 126.668 116.478" stroke="#FF8609" stroke-width="3.611" stroke-linecap="round" stroke-linejoin="round"/>
<path d="M121.089 126.745C119.896 126.397 118.705 126.048 117.517 125.699" stroke="#FF8609" stroke-width="3.611" stroke-linecap="round" stroke-linejoin="round"/>
<path d="M122.134 120.04C119.15 119.353 116.055 119.287 113.045 119.848C112.673 126.474 113.623 133.107 115.839 139.362C115.382 139.824 114.799 140.14 114.164 140.271C113.528 140.402 112.868 140.343 112.266 140.1" stroke="#FF8609" stroke-width="3.611" stroke-linecap="round" stroke-linejoin="round"/>
<path d="M108.219 125.058C106.591 124.568 104.855 124.568 103.227 125.058" stroke="#FF8609" stroke-width="3.611" stroke-linecap="round" stroke-linejoin="round"/>
<path d="M109.29 150.356C107.076 150.413 104.916 149.672 103.203 148.269" stroke="#FF8609" stroke-width="3.611" stroke-linecap="round" stroke-linejoin="round"/>
<path d="M66.1584 209.966C58.8427 214.623 53.1373 221.418 49.8176 229.43C47.8114 234.291 47.1192 240.744 51.2071 244.053C53.6473 246.029 57.0481 246.206 60.1906 246.211C68.7926 246.231 77.3853 245.665 85.91 244.518C85.952 245.418 85.9906 246.312 86.0359 247.212C86.4049 255.225 86.7756 263.241 87.148 271.258C87.2848 274.255 87.4229 277.251 87.5623 280.247" stroke="#FF8609" stroke-width="3.611" stroke-linecap="round" stroke-linejoin="round"/>
<path d="M87.5631 280.247C78.7475 281.546 69.3929 282.592 60.1814 283.132C55.74 283.395 51.3339 283.537 47.0385 283.537C39.803 283.537 32.1779 283.132 26.0641 279.277C25.9327 279.193 25.8013 279.109 25.6699 279.019C19.6165 275.012 16.029 268.147 13.634 261.268C9.50581 249.435 8.15157 236.408 11.3554 224.291C15.7473 207.672 28.5299 194.019 43.8351 186.198C57.7508 179.083 73.5715 176.42 89.2406 176.506C90.8077 176.511 92.3706 176.545 93.9297 176.607" stroke="#FF8609" stroke-width="3.611" stroke-linecap="round" stroke-linejoin="round"/>
<path d="M89.2402 176.254C88.7146 174.642 88.179 172.995 88.2142 171.297C88.2495 169.6 88.9673 167.825 90.4274 166.961C91.5239 166.314 92.8529 166.264 94.1215 166.229C95.0111 166.204 95.9052 166.183 96.7948 166.158L115.531 165.658C116.339 165.638 117.153 165.612 117.961 165.592C120.7 165.522 123.58 165.481 125.995 166.78C128.41 168.079 129.472 170.989 128.183 173.404" stroke="#FF8609" stroke-width="3.611" stroke-linecap="round" stroke-linejoin="round"/>
<path d="M122.933 173.833C124.671 173.717 126.422 173.614 128.188 173.525C156.954 172.08 189.161 174.268 216.174 182.959" stroke="#FF8609" stroke-width="3.611" stroke-linecap="round" stroke-linejoin="round"/>
<path d="M99.3005 244.902L99.4823 243.285L105.723 188.188L110.483 189.356L177.061 205.666C177.061 205.666 177.072 205.773 177.107 205.964C177.339 207.258 178.633 212.351 184.55 211.73C189.552 211.204 190.669 208.132 190.912 206.576C190.96 206.275 190.98 205.971 190.972 205.666L245.533 175.137L250.889 172.141L246.493 196.849" stroke="#FF8609" stroke-width="3.611" stroke-linecap="round" stroke-linejoin="round"/>
<path d="M236.982 248.292L232.682 273.516L230.201 288.059L174.973 316.153L168.5 319.448L161.759 317.436L160.067 316.931L93.2371 296.977L93.9142 290.878L96.0916 271.177" stroke="#FF8609" stroke-width="3.611" stroke-linecap="round" stroke-linejoin="round"/>
<path d="M176.792 206.026L160.339 316.012" stroke="#FF8609" stroke-width="3.611" stroke-linecap="round" stroke-linejoin="round"/>
<path d="M191.238 206.293L191.187 206.616L174.472 315.168" stroke="#FF8609" stroke-width="3.611" stroke-linecap="round" stroke-linejoin="round"/>
<path d="M110.179 189.528L110.483 189.356L115.712 186.405L181.339 202.458L216.3 183.186L236.982 171.782L245.531 175.137L245.779 175.233" stroke="#FF8609" stroke-width="3.611" stroke-linecap="round" stroke-linejoin="round"/>
<path d="M239.118 221.537C239.235 213.595 242.388 196.632 246.491 196.849C249.821 197.227 248.431 203.463 247.911 207.031C246.903 213.938 248.219 220.962 248.103 227.94C247.987 234.918 245.975 242.522 240.22 246.468" stroke="#FF8609" stroke-width="3.611" stroke-linecap="round" stroke-linejoin="round"/>
<path d="M240.221 246.469C239.13 247.03 238.006 247.526 236.856 247.954C233.698 249.092 230.442 249.934 227.129 250.47C226.164 250.642 225.047 250.743 224.309 250.093C223.526 249.4 223.554 248.112 224.092 247.212C224.63 246.313 225.542 245.727 226.431 245.186C227.061 244.802 227.695 244.423 228.336 244.053C232.812 241.46 237.489 239.233 242.323 237.393" stroke="#FF8609" stroke-width="3.611" stroke-linecap="round" stroke-linejoin="round"/>
<path d="M228.361 244.008C228.346 244.013 228.336 244.023 228.319 244.028C226.273 245.109 223.14 243.598 222.893 241.294C222.63 238.817 224.893 236.858 227.031 235.574C227.147 235.509 227.258 235.438 227.374 235.378C232.087 232.608 237.285 230.763 242.69 229.94" stroke="#FF8609" stroke-width="3.611" stroke-linecap="round" stroke-linejoin="round"/>
<path d="M227.351 235.332C225.85 235.989 223.541 234.716 222.985 233.18C222.429 231.644 222.965 229.87 223.986 228.596C225.007 227.323 226.452 226.459 227.897 225.696C231.445 223.838 235.219 222.449 239.124 221.563C240.772 221.185 242.439 220.9 244.119 220.709" stroke="#FF8609" stroke-width="3.611" stroke-linecap="round" stroke-linejoin="round"/>
<path d="M99.1234 245.523C99.2598 244.767 99.3711 244.022 99.4672 243.284C99.7501 241.066 99.8664 238.898 99.9625 236.529C99.9978 235.624 100.251 234.619 99.6846 233.911C98.9366 232.981 97.3653 233.214 96.4942 234.033C95.6232 234.851 95.2462 236.048 94.8016 237.16C93.0796 241.392 89.9946 244.93 86.0351 247.21C85.9843 247.241 85.9339 247.266 85.8831 247.296" stroke="#FF8609" stroke-width="3.611" stroke-linecap="round" stroke-linejoin="round"/>
<path d="M97.5223 245.928C98.0579 245.807 98.5936 245.681 99.1292 245.554C103.07 244.62 107.017 243.533 110.958 242.649C112.17 242.376 113.419 242.098 114.646 242.295C115.874 242.493 117.087 243.271 117.425 244.468C117.744 245.62 117.168 246.873 116.284 247.682C115.4 248.49 114.252 248.93 113.131 249.339C112.59 249.536 112.049 249.728 111.508 249.91C106.277 251.721 100.918 253.14 95.4758 254.154" stroke="#FF8609" stroke-width="3.611" stroke-linecap="round" stroke-linejoin="round"/>
<path d="M111.518 249.94C113.908 249.49 116.551 249.475 117.461 251.729C118.032 253.159 117.405 254.851 116.308 255.933C115.395 256.771 114.321 257.414 113.15 257.822C112.867 257.938 112.579 258.044 112.296 258.15C107.084 260.064 101.685 261.426 96.1878 262.213" stroke="#FF8609" stroke-width="3.611" stroke-linecap="round" stroke-linejoin="round"/>
<path d="M113.17 257.878C114.782 257.135 117.193 258.58 117.678 260.283C118.163 261.986 117.384 263.86 116.117 265.103C114.849 266.346 113.17 267.064 111.499 267.664C106.522 269.424 101.335 270.523 96.0723 270.934C93.1518 271.191 90.2011 271.282 87.2198 271.252" stroke="#FF8609" stroke-width="3.611" stroke-linecap="round" stroke-linejoin="round"/>
<path d="M232.965 273.568C239.942 270.445 245.147 268.444 252.787 268.641C260.427 268.838 268.456 272.931 271.043 280.121C273.64 287.337 270.235 295.28 266.167 301.778C257.178 316.123 244.667 327.967 230.413 337.188C227.876 338.831 225.289 340.387 222.652 341.857C221.454 342.529 220.246 343.176 219.034 343.808C216.967 344.894 214.878 345.925 212.768 346.9C210.767 347.83 208.751 348.716 206.72 349.558C203.157 351.034 199.55 352.388 195.897 353.621C193.826 354.323 191.741 354.99 189.642 355.621C185.756 356.788 181.838 357.84 177.888 358.775C171.097 360.392 164.22 361.695 157.307 362.741C153.017 363.393 148.716 363.954 144.402 364.424C129.688 366.046 114.646 366.728 100.214 363.423C96.2024 362.504 92.1452 361.198 88.5627 359.209C85.758 357.702 83.2867 355.645 81.2965 353.161C78.7874 349.886 77.5393 345.819 77.7799 341.7C77.9969 338.468 79.2349 335.409 81.684 333.242C85.0339 330.276 89.6575 329.578 94.2151 329.387C95.1853 329.345 96.1554 329.326 97.1054 329.316C107.782 329.179 118.457 329.044 129.13 328.911C132.597 328.866 136.452 329.311 139.747 328.012C140.094 327.879 140.434 327.725 140.762 327.55C143.785 325.949 156.28 319.714 161.717 317.571" stroke="#FF8609" stroke-width="3.611" stroke-linecap="round" stroke-linejoin="round"/>
<path d="M25.6493 279.055C25.6493 279.055 22.9765 277.807 15.1126 283.072C8.09574 287.776 3.99269 295.891 2.32024 304.168C1.08228 310.276 1.04198 316.977 4.22023 322.338C8.25736 329.134 16.3875 332.176 24.0071 334.283C41.7681 339.189 59.0034 341.766 77.4264 341.68" stroke="#FF8609" stroke-width="3.611" stroke-linecap="round" stroke-linejoin="round"/>
<path d="M93.4188 290.823C91.2779 290.232 90.8014 290.171 60.186 283.183" stroke="#FF8609" stroke-width="3.611" stroke-linecap="round" stroke-linejoin="round"/>
<path d="M177.949 359.037C186.504 364.326 195.478 367.576 205.346 369.522C207.231 369.896 209.146 370.199 211.066 370.401C216.275 370.951 221.551 370.76 226.502 369.132C233.278 366.908 239.342 361.583 240.939 354.631C242.363 348.426 238.548 341.113 232.798 338.34C232.11 338.005 231.391 337.74 230.651 337.547" stroke="#FF8609" stroke-width="3.611" stroke-linecap="round" stroke-linejoin="round"/>
<path d="M96.7948 166.193V166.158C96.5429 155.859 96.2919 145.562 96.0417 135.265C95.9405 131.288 95.8427 127.313 95.7478 123.34C95.7058 121.677 95.6823 119.95 96.359 118.434C97.3665 116.195 99.7245 114.861 102.084 114.184C108.158 112.441 114.61 114.1 120.795 115.407C122.737 115.832 124.7 116.16 126.676 116.387C131.084 116.867 135.504 116.62 139.309 114.498C140.38 113.902 141.497 112.887 141.284 111.679C141.082 110.552 139.839 109.958 138.728 109.678C136.338 109.072 133.493 108.844 131.098 109.441" stroke="#FF8609" stroke-width="3.611" stroke-linecap="round" stroke-linejoin="round"/>
<path d="M131.099 109.439C133.127 108.609 135.042 107.526 136.798 106.215C137.446 105.787 137.997 105.228 138.415 104.573C138.62 104.243 138.735 103.864 138.747 103.476C138.76 103.087 138.669 102.702 138.486 102.36C138.021 101.612 137.066 101.36 136.197 101.248C134.073 100.991 131.918 101.199 129.883 101.858C127.847 102.516 125.979 103.61 124.409 105.063C124.57 104.922 124.732 104.785 124.899 104.649" stroke="#FF8609" stroke-width="3.611" stroke-linecap="round" stroke-linejoin="round"/>
<path d="M89.7053 135.906C90.2254 135.114 90.6524 134.265 90.9786 133.375" stroke="#FF8609" stroke-width="3.611" stroke-linecap="round" stroke-linejoin="round"/>
<path d="M124.145 105.205C124.211 105.134 124.277 105.069 124.337 104.998C125.629 103.616 126.542 101.924 126.99 100.086C127.188 99.4965 127.164 98.8551 126.924 98.2812C126.364 97.2351 124.813 97.2905 123.736 97.7909C121.099 99.0083 119.547 101.758 117.258 103.546C114.651 105.588 111.225 106.265 107.921 106.396C104.616 106.528 101.296 106.174 97.9966 106.442C96.0211 106.603 93.9595 107.038 92.489 108.362C91.1855 109.537 90.5134 111.277 90.2221 113.01C89.9308 114.744 89.9744 116.507 89.8581 118.26C89.5148 123.389 87.7814 128.356 85.4083 132.919C84.8324 134.02 84.2107 135.324 84.7564 136.441C85.4084 137.764 87.394 137.876 88.6067 137.028C89.0349 136.722 89.4077 136.344 89.7083 135.912" stroke="#FF8609" stroke-width="3.611" stroke-linecap="round" stroke-linejoin="round"/>
<path d="M90.806 133.354C90.3585 134.168 89.9895 135.023 89.7045 135.906V135.911C89.3405 137.049 89.1181 138.226 89.0425 139.418C88.9972 140.186 89.0631 141.065 89.6642 141.54C89.9446 141.724 90.27 141.829 90.6054 141.843C90.9408 141.857 91.2737 141.78 91.5692 141.621C92.7614 141.07 93.4583 139.827 93.9843 138.629C94.5103 137.432 94.9796 136.143 95.9497 135.264" stroke="#FF8609" stroke-width="3.611" stroke-linecap="round" stroke-linejoin="round"/>
<path d="M200.985 148.099C200.596 149.201 200.264 150.322 199.99 151.457C199.691 152.781 199.07 154.211 199.883 155.319C200.666 156.38 202.167 156.673 203.521 156.875C205.548 157.188 207.576 157.499 209.605 157.805C211.086 158.032 212.677 158.245 214.026 157.618C216.164 156.623 217.013 153.318 217.346 151.095" stroke="#FF8609" stroke-width="3.611" stroke-linecap="round" stroke-linejoin="round"/>
<path d="M199.267 142.369C197.656 143.39 197.974 145.895 199.388 147.134C199.862 147.543 200.401 147.869 200.984 148.099C202.2 148.539 203.466 148.825 204.753 148.953L215.835 150.469C216.329 150.539 216.828 150.566 217.326 150.55C218.082 150.536 218.834 150.441 219.57 150.267C221.707 149.767 222.369 147.008 221.849 144.067" stroke="#FF8609" stroke-width="3.611" stroke-linecap="round" stroke-linejoin="round"/>
<path d="M199.313 142.308C200.068 142.869 201.227 143.056 202.824 143.187C208.003 143.617 213.228 143.775 218.422 144.069C219.099 144.128 219.78 144.116 220.454 144.033C220.781 143.984 221.101 143.891 221.404 143.756C222.525 143.181 223.404 142.224 223.88 141.057C226.735 134.776 226.567 133.902 234.547 127.177C261.07 104.813 250.534 84.086 232.536 81.3573C219.045 79.3108 187.469 85.7886 196.777 112.695C203.356 131.714 198.207 135.762 198.212 139.284C198.211 140.848 198.569 141.762 199.313 142.308Z" stroke="#FF8609" stroke-width="3.611" stroke-linecap="round" stroke-linejoin="round"/>
<path d="M216.684 140.919C220.09 133.4 223.496 125.88 226.902 118.357C227.286 117.514 227.731 116.604 228.59 116.179C229.413 115.776 230.404 115.917 231.328 115.856C232.215 115.792 233.078 115.541 233.861 115.118C234.643 114.696 235.326 114.112 235.866 113.405C236.327 112.833 236.647 112.16 236.799 111.441C236.951 110.722 236.93 109.977 236.74 109.267C236.505 108.55 236.048 107.926 235.436 107.485C234.825 107.044 234.088 106.808 233.334 106.811C231.798 106.877 230.399 108.317 230.681 109.747C230.746 110.117 230.926 110.456 231.195 110.717C231.465 110.978 231.811 111.146 232.182 111.197C232.95 111.258 233.728 110.515 233.496 109.823" stroke="#FF8609" stroke-width="3.611" stroke-linecap="round" stroke-linejoin="round"/>
<path d="M203.789 140.797C206.776 130.619 208.939 120.217 210.257 109.691C208.716 109.595 207.776 107.569 208.741 106.422C209.706 105.275 212.01 105.679 212.455 107.083" stroke="#FF8609" stroke-width="3.611" stroke-linecap="round" stroke-linejoin="round"/>
<path d="M215.093 107.792C214.775 109.227 216.083 110.622 217.579 110.991C219.075 111.36 220.666 110.966 222.132 110.48C223.597 109.995 225.073 109.409 226.619 109.404" stroke="#FF8609" stroke-width="3.611" stroke-linecap="round" stroke-linejoin="round"/>
<path d="M137.258 76.5352C140.497 77.3328 143.978 76.515 146.878 74.8677C149.855 73.1747 152.366 70.5624 153.609 67.374C156.433 60.0982 150.251 49.9367 141.906 50.9069C134.135 51.8161 127.293 60.5071 129.35 68.2023C130.381 72.0581 133.291 75.5549 137.258 76.5352Z" stroke="#FF8609" stroke-width="3.611" stroke-linecap="round" stroke-linejoin="round"/>
<path d="M137.97 47.5767C134.802 48.7504 132.052 50.8355 130.067 53.5692C129.125 51.961 127.769 50.6332 126.142 49.7239L121.412 55.7572L126.202 59.8195" stroke="#FF8609" stroke-width="3.611" stroke-linecap="round" stroke-linejoin="round"/>
<path d="M124.929 62.2954C124.964 64.2714 124.999 66.2473 125.035 68.2224C125.077 68.7056 125.019 69.1922 124.867 69.6527C124.266 71.1282 122.063 71.2441 121.204 72.5883C122.209 74.1495 123.215 75.7128 124.221 77.2774C124.372 77.5099 124.549 77.7677 124.822 77.818C125.098 77.8252 125.365 77.7257 125.569 77.5401C126.792 76.6661 128.013 75.7905 129.233 74.9127" stroke="#FF8609" stroke-width="3.611" stroke-linecap="round" stroke-linejoin="round"/>
<path d="M130.886 77.2622C132.218 78.4406 133.816 79.2781 135.543 79.7029C137.269 80.1282 139.073 80.1282 140.8 79.7029C140.997 81.6029 141.199 83.5075 141.396 85.4075C144.287 84.8852 147.142 84.1842 149.945 83.3085C149.162 81.7972 148.378 80.286 147.595 78.7747C147.648 78.7936 147.705 78.8016 147.761 78.7978C147.818 78.7941 147.873 78.7789 147.923 78.7538C147.974 78.7281 148.019 78.6929 148.055 78.6496C148.092 78.6064 148.119 78.556 148.135 78.5019" stroke="#FF8609" stroke-width="3.611" stroke-linecap="round" stroke-linejoin="round"/>
<path d="M150.244 76.4235C151.793 75.7392 153.181 74.7364 154.318 73.4799C155.454 72.2239 156.313 70.7425 156.839 69.1321C157.062 68.4449 157.264 67.6717 157.86 67.2679C159.002 66.4996 160.624 67.6062 161.887 67.0655C161.775 64.1249 161.664 61.1821 161.554 58.2381C160.129 58.6579 158.709 59.0777 157.284 59.5013" stroke="#FF8609" stroke-width="3.611" stroke-linecap="round" stroke-linejoin="round"/>
<path d="M155.701 56.9548C155.46 55.3689 154.811 53.8727 153.817 52.6129C152.824 51.3535 151.52 50.3737 150.034 49.7697C150.16 48.0565 150.292 46.3438 150.418 44.6306L145.12 43.9807C144.715 43.8947 144.295 43.919 143.903 44.0513C143.656 44.1848 143.45 44.3825 143.307 44.6234C143.164 44.8648 143.089 45.1402 143.09 45.4206C143.1 45.9823 143.213 46.5369 143.423 47.0578" stroke="#FF8609" stroke-width="3.611" stroke-linecap="round" stroke-linejoin="round"/>
<path d="M139.785 328.098C143.559 326.764 148.258 327.744 151.982 329.882C153.132 330.533 154.2 331.318 155.166 332.221C159.001 335.839 160.936 341.19 161.043 346.46C161.069 347.991 160.961 349.521 160.719 351.033C160.093 354.73 158.886 358.305 157.142 361.624" stroke="#FF8609" stroke-width="3.611" stroke-linecap="round" stroke-linejoin="round"/>
<path d="M151.871 330.079C146.97 332.07 141.628 332.267 136.288 332.039C134.231 331.955 132.174 331.802 130.144 331.67C128.653 331.57 127.142 331.489 125.632 331.453C121.434 331.337 117.213 331.559 113.307 332.737C111.701 333.211 110.155 333.869 108.699 334.697C104.834 336.915 101.559 341.2 102.56 345.541C103.393 349.158 106.855 351.529 110.255 353.019C111.703 353.651 113.188 354.194 114.702 354.646C118.551 355.776 122.527 356.417 126.536 356.556C129.486 356.675 132.441 356.589 135.379 356.298C137.147 356.127 138.91 355.894 140.664 355.611C147.323 354.54 153.877 352.756 160.394 350.983" stroke="#FF8609" stroke-width="3.611" stroke-miterlimit="10" stroke-linecap="round"/>
<path d="M189.727 355.904C191.537 356.705 193.386 357.411 195.268 358.021C198.536 359.078 201.886 359.861 205.283 360.361C206.799 360.588 208.325 360.76 209.851 360.881C212.039 361.085 214.242 361.082 216.43 360.871C218.011 360.712 219.565 360.349 221.053 359.79C224.585 358.436 227.708 355.54 228.466 351.832C229.224 348.123 226.985 343.802 223.287 343.009" stroke="#FF8609" stroke-width="3.611" stroke-miterlimit="10" stroke-linecap="round"/>
<path d="M140.658 355.586C141.995 351.676 142.293 347.487 141.524 343.428C140.755 339.368 138.946 335.578 136.272 332.428" stroke="#FF8609" stroke-width="3.611" stroke-miterlimit="10" stroke-linecap="round"/>
<path d="M126.561 356.015C130.659 348.81 130.27 339.28 125.601 332.428" stroke="#FF8609" stroke-width="3.611" stroke-miterlimit="10" stroke-linecap="round"/>
<path d="M114.712 354.616C116.328 351.187 117.052 347.407 116.819 343.624C116.586 339.841 115.402 336.178 113.378 332.974" stroke="#FF8609" stroke-width="3.611" stroke-miterlimit="10" stroke-linecap="round"/>
<path d="M219.136 343.46C219.101 343.576 219.07 343.693 219.035 343.809C217.489 349.193 216.594 354.744 216.372 360.342" stroke="#FF8609" stroke-width="3.611" stroke-miterlimit="10" stroke-linecap="round"/>
<path d="M205.29 360.336C205.781 356.774 206.269 353.21 206.756 349.644" stroke="#FF8609" stroke-width="3.611" stroke-miterlimit="10" stroke-linecap="round"/>
<path d="M195.366 357.728C195.294 356.497 195.54 355.268 196.08 354.16" stroke="#FF8609" stroke-width="3.611" stroke-miterlimit="10" stroke-linecap="round"/>
<path d="M94.2899 329.366C94.2647 329.371 94.2446 329.382 94.2194 329.387C91.2556 330.275 88.5946 331.964 86.5284 334.267C84.4621 336.57 83.0714 339.399 82.5089 342.441C81.9463 345.483 82.2339 348.622 83.3396 351.512C84.4458 354.402 86.3273 356.93 88.7772 358.819C88.9086 358.921 89.04 359.022 89.1764 359.118" stroke="#FF8609" stroke-width="3.611" stroke-miterlimit="10" stroke-linecap="round"/>
<path d="M211.046 370.603C216.912 371.31 222.9 371.862 228.69 370.684C234.481 369.506 240.126 366.339 242.995 361.175C244.172 359.054 244.84 356.688 244.945 354.265C245.051 351.841 244.59 349.426 243.601 347.211C242.612 344.996 241.121 343.042 239.246 341.502C237.371 339.963 235.164 338.881 232.798 338.342C232.748 338.326 232.697 338.316 232.647 338.306" stroke="#FF8609" stroke-width="3.611" stroke-miterlimit="10" stroke-linecap="round"/>
<path d="M119.992 215.535L158.985 224.807" stroke="#FF8609" stroke-width="3.611" stroke-linecap="round" stroke-linejoin="round"/>
<path d="M126.647 225.287L151.376 231.704" stroke="#FF8609" stroke-width="3.611" stroke-linecap="round" stroke-linejoin="round"/>
<path d="M179.434 218.627L168.737 297.811" stroke="#FF8609" stroke-width="3.611" stroke-linecap="round" stroke-linejoin="round"/>
<path d="M64.8658 137.091L69.6578 135.554C69.7295 135.531 69.8068 135.53 69.879 135.552C69.9512 135.574 70.015 135.618 70.0616 135.678C70.1078 135.737 70.1351 135.809 70.1393 135.885C70.1435 135.96 70.1241 136.035 70.0843 136.099L67.4429 140.381C67.4047 140.443 67.3858 140.515 67.3884 140.588C67.3909 140.661 67.4152 140.731 67.4576 140.791L70.4 144.873C70.444 144.934 70.468 145.007 70.4692 145.083C70.4705 145.158 70.4482 145.232 70.4062 145.294C70.3643 145.357 70.3042 145.405 70.2341 145.432C70.164 145.459 70.0872 145.465 70.0137 145.447L65.124 144.258C65.0531 144.241 64.9788 144.245 64.9103 144.27C64.8419 144.295 64.7827 144.34 64.7395 144.399L61.7665 148.459C61.722 148.52 61.6599 148.565 61.5889 148.59C61.5176 148.614 61.4403 148.616 61.3681 148.596C61.2955 148.575 61.2313 148.532 61.1834 148.474C61.136 148.416 61.1074 148.344 61.1016 148.269L60.7212 143.251C60.7158 143.179 60.6889 143.11 60.6444 143.052C60.5995 142.994 60.5386 142.952 60.4694 142.929L55.6892 141.356C55.6178 141.333 55.5553 141.288 55.5099 141.227C55.4646 141.167 55.439 141.095 55.4361 141.019C55.4335 140.944 55.4541 140.87 55.4948 140.806C55.5355 140.743 55.5947 140.694 55.6644 140.665L60.3187 138.752C60.3862 138.725 60.4438 138.678 60.4845 138.617C60.5252 138.557 60.547 138.486 60.547 138.413L60.5659 133.381C60.5663 133.305 60.5898 133.232 60.6331 133.171C60.6763 133.109 60.7376 133.062 60.8081 133.036C60.8791 133.01 60.9559 133.006 61.0289 133.026C61.1016 133.045 61.1671 133.086 61.2157 133.143L64.4725 136.979C64.5199 137.034 64.5825 137.074 64.6526 137.094C64.7223 137.114 64.7966 137.113 64.8658 137.091Z" stroke="#FF8609" stroke-width="3.611" stroke-miterlimit="10"/>
<path d="M240.05 54.4717L247.29 56.043C247.398 56.067 247.496 56.1232 247.571 56.2047C247.646 56.2857 247.694 56.3881 247.71 56.4977C247.725 56.6072 247.707 56.7185 247.657 56.8175C247.607 56.9162 247.529 56.9976 247.432 57.0505L240.909 60.5629C240.815 60.6137 240.738 60.6914 240.687 60.7863C240.637 60.8807 240.616 60.9886 240.627 61.0952L241.369 68.4659C241.38 68.5763 241.357 68.6872 241.303 68.7841C241.249 68.8811 241.167 68.9592 241.067 69.0079C240.967 69.0566 240.855 69.0734 240.745 69.0566C240.636 69.0394 240.534 68.989 240.454 68.9126L235.098 63.7953C235.02 63.7214 234.922 63.6719 234.817 63.6534C234.711 63.635 234.602 63.648 234.504 63.6908L227.724 66.6747C227.622 66.7192 227.509 66.7313 227.4 66.7099C227.292 66.6885 227.192 66.6344 227.115 66.5546C227.038 66.4749 226.987 66.3733 226.969 66.2637C226.952 66.1541 226.968 66.042 227.016 65.9421L230.228 59.2674C230.274 59.1705 230.291 59.0626 230.276 58.9564C230.261 58.8502 230.215 58.7507 230.144 58.6705L225.211 53.144C225.136 53.0613 225.09 52.9576 225.076 52.8476C225.063 52.7372 225.084 52.6255 225.136 52.5277C225.188 52.4295 225.269 52.3497 225.368 52.2989C225.466 52.2485 225.578 52.2292 225.688 52.2443L233.03 53.2363C233.136 53.2506 233.244 53.2334 233.34 53.1859C233.437 53.1389 233.517 53.0646 233.571 52.9718L237.303 46.5725C237.359 46.4768 237.443 46.4004 237.543 46.3534C237.644 46.3068 237.756 46.2921 237.865 46.3114C237.975 46.3307 238.076 46.3828 238.154 46.4609C238.233 46.5394 238.286 46.6397 238.306 46.7488L239.631 54.0373C239.65 54.1431 239.7 54.2404 239.775 54.3181C239.849 54.3953 239.945 54.4487 240.05 54.4717Z" stroke="#FF8609" stroke-width="3.611" stroke-miterlimit="10"/>
<path d="M259.093 170.357L299.754 134.333" stroke="#FF8609" stroke-width="3.611" stroke-linecap="round" stroke-linejoin="round"/>
<path d="M253.743 163.223L258.38 153.593" stroke="#FF8609" stroke-width="3.611" stroke-linecap="round" stroke-linejoin="round"/>
<path d="M245.896 161.44L249.106 126.129" stroke="#FF8609" stroke-width="3.611" stroke-linecap="round" stroke-linejoin="round"/>
<path d="M258.38 182.84L268.01 183.197" stroke="#FF8609" stroke-width="3.611" stroke-linecap="round" stroke-linejoin="round"/>
<path d="M258.737 193.897L288.697 217.081" stroke="#FF8609" stroke-width="3.611" stroke-linecap="round" stroke-linejoin="round"/>
<path d="M272.659 306.618C275.7 302.946 277.835 298.609 278.889 293.959C279.944 289.309 279.889 284.476 278.73 279.851" stroke="url(#paint6_linear_3_147)" stroke-width="3.611" stroke-linecap="round" stroke-linejoin="round"/>
<path fill-rule="evenodd" clip-rule="evenodd" d="M161.719 317.573C156.282 319.716 143.787 325.951 140.765 327.553C140.435 327.727 140.096 327.881 139.748 328.014L139.784 328.098C143.558 326.765 148.257 327.745 151.981 329.882C153.131 330.533 154.2 331.318 155.165 332.221C159 335.84 160.936 341.19 161.042 346.46C161.068 347.991 160.96 349.521 160.718 351.034C160.092 354.73 158.885 358.305 157.141 361.624L157.309 362.741C164.221 361.695 171.098 360.392 177.889 358.775C181.84 357.84 185.758 356.788 189.643 355.621C191.742 354.99 193.827 354.323 195.898 353.621C199.551 352.388 203.159 351.034 206.721 349.558C208.753 348.716 210.769 347.83 212.77 346.9C214.88 345.925 216.969 344.894 219.036 343.808C220.248 343.176 221.456 342.529 222.653 341.857C225.291 340.387 227.878 338.831 230.414 337.188C244.669 327.967 257.18 316.123 266.169 301.778C270.236 295.28 273.642 287.337 271.045 280.121C268.458 272.931 260.429 268.838 252.789 268.641C245.149 268.444 239.944 270.445 232.966 273.568L232.683 273.517L230.202 288.059L174.974 316.153L168.502 319.448L161.761 317.437L161.719 317.573ZM267.308 280.238C267.206 279.832 266.794 279.586 266.389 279.687C265.983 279.789 265.736 280.201 265.838 280.607C266.404 282.87 266.703 284.91 266.514 287.295C266.325 289.689 265.64 292.473 264.187 296.211C261.998 301.841 259.078 304.969 256.424 307.813C255.587 308.708 254.778 309.576 254.025 310.485C253.758 310.807 253.803 311.285 254.125 311.552C254.448 311.819 254.926 311.774 255.193 311.451C255.871 310.632 256.631 309.819 257.436 308.958C260.118 306.088 263.294 302.69 265.6 296.76C267.085 292.941 267.82 290.006 268.025 287.415C268.231 284.814 267.9 282.6 267.308 280.238Z" fill="#FF8609"/>
<path d="M158.999 187.969C169.323 177.726 170.617 159.707 161.862 148.096C157.331 142.088 150.495 137.617 147.871 130.564C144.563 121.673 149.075 111.845 154.42 104.005C159.764 96.1654 166.265 88.4614 167.461 79.051" stroke="url(#paint7_linear_3_147)" stroke-width="3.611" stroke-linecap="round" stroke-linejoin="round"/>
<path d="M191.724 188.308C189.985 182.534 193.85 176.338 198.923 173.079C203.997 169.821 210.09 168.671 215.841 166.866C220.187 165.502 224.471 163.694 227.99 160.802C231.509 157.911 234.214 153.819 234.687 149.289" stroke="url(#paint8_linear_3_147)" stroke-width="3.611" stroke-linecap="round" stroke-linejoin="round"/>
<path d="M102.025 87.0262L93.4654 78.4654" stroke="url(#paint9_linear_3_147)" stroke-width="3.611" stroke-linecap="round" stroke-linejoin="round"/>
<path d="M93.8705 87.9161L100.355 77.2534" stroke="url(#paint10_linear_3_147)" stroke-width="3.611" stroke-linecap="round" stroke-linejoin="round"/>
<path d="M263.658 120.656L273.34 115.038" stroke="url(#paint11_linear_3_147)" stroke-width="3.611" stroke-linecap="round" stroke-linejoin="round"/>
<path d="M270.08 123.652C269.115 120.147 267.715 116.778 265.912 113.622" stroke="url(#paint12_linear_3_147)" stroke-width="3.611" stroke-linecap="round" stroke-linejoin="round"/>
<path d="M77.9025 117.925C76.4752 116.142 75.0479 114.359 73.6206 112.576" stroke="url(#paint13_linear_3_147)" stroke-width="3.611" stroke-linecap="round" stroke-linejoin="round"/>
<path d="M72.174 118.62C74.3158 116.244 76.458 113.868 78.6002 111.492" stroke="url(#paint14_linear_3_147)" stroke-width="3.611" stroke-linecap="round" stroke-linejoin="round"/>
<path d="M191.682 54.0809C189.823 51.6457 188.487 48.8528 187.758 45.8778" stroke="#FF8609" stroke-width="3.611" stroke-linecap="round" stroke-linejoin="round"/>
<path d="M185.33 53.0726C187.472 50.6966 189.614 48.3205 191.757 45.9449" stroke="#FF8609" stroke-width="3.611" stroke-linecap="round" stroke-linejoin="round"/>
<path d="M154.137 164.126C151.886 162.997 150.06 161.171 148.932 158.92" stroke="#FF8609" stroke-width="3.611" stroke-linecap="round" stroke-linejoin="round"/>
<path d="M148.524 165.364C150.694 163.244 152.396 160.692 153.519 157.874" stroke="#FF8609" stroke-width="3.611" stroke-linecap="round" stroke-linejoin="round"/>
<path d="M66.4888 258.456L50.4389 260.061L63.457 272.722L66.4888 258.456Z" stroke="url(#paint15_linear_3_147)" stroke-width="3.611" stroke-linecap="round" stroke-linejoin="round"/>
<path d="M30.1075 265.411L36.171 239.909L18.6942 253.284L30.1075 265.411Z" stroke="url(#paint16_linear_3_147)" stroke-width="3.611" stroke-linecap="round" stroke-linejoin="round"/>
<path d="M44.9098 216.547L55.9671 208.521L46.5151 204.241L44.9098 216.547Z" stroke="url(#paint17_linear_3_147)" stroke-width="3.611" stroke-linecap="round" stroke-linejoin="round"/>
<path d="M74.1575 222.253L75.0496 237.412L86.1061 229.565L74.1575 222.253Z" stroke="url(#paint18_linear_3_147)" stroke-width="3.611" stroke-linecap="round" stroke-linejoin="round"/>
<path d="M86.9977 199.425L74.3355 190.152L89.851 184.089L86.9977 199.425Z" stroke="url(#paint19_linear_3_147)" stroke-width="3.611" stroke-linecap="round" stroke-linejoin="round"/>
<path d="M102.869 181.057L115.175 179.809L107.328 173.211L102.869 181.057Z" stroke="url(#paint20_linear_3_147)" stroke-width="3.611" stroke-linecap="round" stroke-linejoin="round"/>
<path d="M134.792 178.738L142.639 188.012L149.594 178.382L134.792 178.738Z" stroke="url(#paint21_linear_3_147)" stroke-width="3.611" stroke-linecap="round" stroke-linejoin="round"/>
<path d="M179.555 180.523L172.243 195.146L189.363 193.006L179.555 180.523Z" stroke="url(#paint22_linear_3_147)" stroke-width="3.611" stroke-linecap="round" stroke-linejoin="round"/>
<path d="M173.862 190.046C182.389 184.528 187.267 173.858 185.863 163.799C184.548 154.383 178.433 146.454 174.436 137.827C168.298 124.585 167.327 108.451 174.248 95.5996C181.993 81.2142 197.901 73.1143 207.57 59.9446C211.583 54.413 214.426 48.1207 215.925 41.4527C217.424 34.7852 217.547 27.8817 216.288 21.1643C215.303 16.0677 213.428 10.9903 209.89 7.19158C206.353 3.39289 200.924 1.08697 195.867 2.25945C190.81 3.43193 186.722 8.65707 187.731 13.7491" stroke="#FF8609" stroke-width="3.611" stroke-linecap="round" stroke-linejoin="round"/>
<path d="M33.4432 226.217L26.0813 223.81" stroke="#FF8609" stroke-width="3.611" stroke-linecap="round" stroke-linejoin="round"/>
<path d="M28.9187 227.9C29.3616 225.646 30.1646 223.479 31.2964 221.48" stroke="#FF8609" stroke-width="3.611" stroke-linecap="round" stroke-linejoin="round"/>
<path d="M59.4451 195.461L54.4101 190.988" stroke="#FF8609" stroke-width="3.611" stroke-linecap="round" stroke-linejoin="round"/>
<path d="M53.1507 196.247C55.4965 194.325 57.6593 192.19 59.6113 189.87" stroke="#FF8609" stroke-width="3.611" stroke-linecap="round" stroke-linejoin="round"/>
<path d="M93.6892 219.714L87.2374 213.802" stroke="#FF8609" stroke-width="3.611" stroke-linecap="round" stroke-linejoin="round"/>
<path d="M86.899 220.739L91.6389 214.07" stroke="#FF8609" stroke-width="3.611" stroke-linecap="round" stroke-linejoin="round"/>
<path d="M166.788 192.965C166.078 191.378 165.369 189.792 164.659 188.205" stroke="#FF8609" stroke-width="3.611" stroke-linecap="round" stroke-linejoin="round"/>
<path d="M162.758 192.146C164.984 191.32 167.052 190.116 168.867 188.586" stroke="#FF8609" stroke-width="3.611" stroke-linecap="round" stroke-linejoin="round"/>
<path d="M46.7527 272.842L42.4708 267.611" stroke="#FF8609" stroke-width="3.611" stroke-linecap="round" stroke-linejoin="round"/>
<path d="M41.5221 273.554C43.3456 271.732 45.1684 269.908 46.9911 268.085" stroke="#FF8609" stroke-width="3.611" stroke-linecap="round" stroke-linejoin="round"/>
<path d="M255.738 106.198C256.927 100.396 256.725 94.3939 255.147 88.6844" stroke="#FF8609" stroke-width="3.611" stroke-linecap="round" stroke-linejoin="round"/>
<path d="M115.397 61.612C114.981 58.3158 115.384 54.9675 116.571 51.864C117.758 48.7605 119.691 45.9974 122.201 43.8195" stroke="#FF8609" stroke-width="3.611" stroke-linecap="round" stroke-linejoin="round"/>
<path d="M165.397 72.3297C166.69 69.8609 167.412 67.1335 167.509 64.3482C167.606 61.5633 167.077 58.7918 165.96 56.2386" stroke="#FF8609" stroke-width="3.611" stroke-linecap="round" stroke-linejoin="round"/>
<path d="M261.25 101.037C260.888 98.3438 260.526 95.6508 260.163 92.9583" stroke="#FF8609" stroke-width="3.611" stroke-linecap="round" stroke-linejoin="round"/>
<path fill-rule="evenodd" clip-rule="evenodd" d="M240.939 354.629C242.363 348.424 238.55 341.113 232.798 338.339C232.11 338.003 231.39 337.738 230.648 337.545L230.411 337.186C227.869 338.829 225.282 340.385 222.65 341.855L223.286 343.008C226.985 343.801 229.223 348.121 228.465 351.83C227.708 355.539 224.585 358.434 221.053 359.788C219.565 360.347 218.011 360.711 216.43 360.869C214.242 361.08 212.039 361.083 209.851 360.879C208.325 360.758 206.799 360.586 205.283 360.359C201.885 359.859 198.536 359.076 195.268 358.02C193.385 357.41 191.536 356.703 189.727 355.902L189.643 355.619C185.752 356.781 181.834 357.833 177.888 358.772L177.949 359.035C186.504 364.325 195.478 367.575 205.346 369.52C207.231 369.895 209.146 370.197 211.066 370.399C216.275 370.95 221.549 370.758 226.502 369.131C233.278 366.908 239.343 361.582 240.939 354.629ZM232.833 343.779C232.502 343.522 232.026 343.582 231.769 343.913C231.513 344.243 231.573 344.719 231.903 344.976C233.247 346.019 234.292 347.397 234.935 348.972C235.577 350.547 235.794 352.264 235.563 353.949C235.506 354.364 235.797 354.746 236.211 354.803C236.626 354.86 237.008 354.569 237.065 354.155C237.332 352.206 237.081 350.221 236.338 348.4C235.596 346.579 234.387 344.985 232.833 343.779Z" fill="url(#paint23_linear_3_147)"/>
</g>
<defs>
<linearGradient id="paint0_linear_3_147" x1="175.627" y1="205.967" x2="175.627" y2="319.448" gradientUnits="userSpaceOnUse">
<stop stop-color="#FFB800"/>
<stop offset="1" stop-color="#FF7F0A"/>
</linearGradient>
<linearGradient id="paint1_linear_3_147" x1="212.68" y1="172.141" x2="212.68" y2="316.153" gradientUnits="userSpaceOnUse">
<stop stop-color="#FFB800"/>
<stop offset="1" stop-color="#FF7F0A"/>
</linearGradient>
<linearGradient id="paint2_linear_3_147" x1="208.414" y1="148.099" x2="208.414" y2="158.032" gradientUnits="userSpaceOnUse">
<stop stop-color="#FFB800"/>
<stop offset="1" stop-color="#FF7F0A"/>
</linearGradient>
<linearGradient id="paint3_linear_3_147" x1="210.102" y1="142.308" x2="210.102" y2="150.556" gradientUnits="userSpaceOnUse">
<stop stop-color="#FFB800"/>
<stop offset="1" stop-color="#FF7F0A"/>
</linearGradient>
<linearGradient id="paint4_linear_3_147" x1="121.472" y1="327.489" x2="121.472" y2="365.771" gradientUnits="userSpaceOnUse">
<stop stop-color="#FFB800"/>
<stop offset="1" stop-color="#FF7F0A"/>
</linearGradient>
<linearGradient id="paint5_linear_3_147" x1="135.174" y1="188.188" x2="135.174" y2="316.93" gradientUnits="userSpaceOnUse">
<stop stop-color="#FFB800"/>
<stop offset="1" stop-color="#FF7F0A"/>
</linearGradient>
<linearGradient id="paint6_linear_3_147" x1="276.15" y1="279.851" x2="276.15" y2="306.618" gradientUnits="userSpaceOnUse">
<stop stop-color="#FFB800"/>
<stop offset="1" stop-color="#FF7F0A"/>
</linearGradient>
<linearGradient id="paint7_linear_3_147" x1="157.207" y1="79.051" x2="157.207" y2="187.969" gradientUnits="userSpaceOnUse">
<stop stop-color="#FFB800"/>
<stop offset="1" stop-color="#FF7F0A"/>
</linearGradient>
<linearGradient id="paint8_linear_3_147" x1="212.994" y1="149.289" x2="212.994" y2="188.308" gradientUnits="userSpaceOnUse">
<stop stop-color="#FFB800"/>
<stop offset="1" stop-color="#FF7F0A"/>
</linearGradient>
<linearGradient id="paint9_linear_3_147" x1="97.7452" y1="78.4654" x2="97.7452" y2="87.0262" gradientUnits="userSpaceOnUse">
<stop stop-color="#FFB800"/>
<stop offset="1" stop-color="#FF7F0A"/>
</linearGradient>
<linearGradient id="paint10_linear_3_147" x1="97.1126" y1="77.2534" x2="97.1126" y2="87.9161" gradientUnits="userSpaceOnUse">
<stop stop-color="#FFB800"/>
<stop offset="1" stop-color="#FF7F0A"/>
</linearGradient>
<linearGradient id="paint11_linear_3_147" x1="268.499" y1="115.038" x2="268.499" y2="120.656" gradientUnits="userSpaceOnUse">
<stop stop-color="#FFB800"/>
<stop offset="1" stop-color="#FF7F0A"/>
</linearGradient>
<linearGradient id="paint12_linear_3_147" x1="267.996" y1="113.622" x2="267.996" y2="123.652" gradientUnits="userSpaceOnUse">
<stop stop-color="#FFB800"/>
<stop offset="1" stop-color="#FF7F0A"/>
</linearGradient>
<linearGradient id="paint13_linear_3_147" x1="75.7615" y1="112.576" x2="75.7615" y2="117.925" gradientUnits="userSpaceOnUse">
<stop stop-color="#FFB800"/>
<stop offset="1" stop-color="#FF7F0A"/>
</linearGradient>
<linearGradient id="paint14_linear_3_147" x1="75.3871" y1="111.492" x2="75.3871" y2="118.62" gradientUnits="userSpaceOnUse">
<stop stop-color="#FFB800"/>
<stop offset="1" stop-color="#FF7F0A"/>
</linearGradient>
<linearGradient id="paint15_linear_3_147" x1="58.4636" y1="258.456" x2="58.4636" y2="272.722" gradientUnits="userSpaceOnUse">
<stop stop-color="#FFB800"/>
<stop offset="1" stop-color="#FF7F0A"/>
</linearGradient>
<linearGradient id="paint16_linear_3_147" x1="27.4326" y1="239.909" x2="27.4326" y2="265.411" gradientUnits="userSpaceOnUse">
<stop stop-color="#FFB800"/>
<stop offset="1" stop-color="#FF7F0A"/>
</linearGradient>
<linearGradient id="paint17_linear_3_147" x1="50.4384" y1="204.241" x2="50.4384" y2="216.547" gradientUnits="userSpaceOnUse">
<stop stop-color="#FFB800"/>
<stop offset="1" stop-color="#FF7F0A"/>
</linearGradient>
<linearGradient id="paint18_linear_3_147" x1="80.1316" y1="222.253" x2="80.1316" y2="237.412" gradientUnits="userSpaceOnUse">
<stop stop-color="#FFB800"/>
<stop offset="1" stop-color="#FF7F0A"/>
</linearGradient>
<linearGradient id="paint19_linear_3_147" x1="82.0933" y1="184.089" x2="82.0933" y2="199.425" gradientUnits="userSpaceOnUse">
<stop stop-color="#FFB800"/>
<stop offset="1" stop-color="#FF7F0A"/>
</linearGradient>
<linearGradient id="paint20_linear_3_147" x1="109.022" y1="173.211" x2="109.022" y2="181.057" gradientUnits="userSpaceOnUse">
<stop stop-color="#FFB800"/>
<stop offset="1" stop-color="#FF7F0A"/>
</linearGradient>
<linearGradient id="paint21_linear_3_147" x1="142.193" y1="178.382" x2="142.193" y2="188.012" gradientUnits="userSpaceOnUse">
<stop stop-color="#FFB800"/>
<stop offset="1" stop-color="#FF7F0A"/>
</linearGradient>
<linearGradient id="paint22_linear_3_147" x1="180.803" y1="180.523" x2="180.803" y2="195.146" gradientUnits="userSpaceOnUse">
<stop stop-color="#FFB800"/>
<stop offset="1" stop-color="#FF7F0A"/>
</linearGradient>
<linearGradient id="paint23_linear_3_147" x1="209.563" y1="337.186" x2="209.563" y2="370.677" gradientUnits="userSpaceOnUse">
<stop stop-color="#FFB800"/>
<stop offset="1" stop-color="#FF7F0A"/>
</linearGradient>
</defs>
</svg>
