<svg width="12" height="12" viewBox="0 0 15 15" fill="none" xmlns="http://www.w3.org/2000/svg">
<path d="M13.875 6.16659H1.125M10.3333 0.833252V3.49992M4.66667 0.833252V3.49992M4.525 14.1666H10.475C11.6651 14.1666 12.2602 14.1666 12.7147 13.9486C13.1146 13.7569 13.4397 13.4509 13.6434 13.0746C13.875 12.6467 13.875 12.0867 13.875 10.9666V5.36659C13.875 4.24648 13.875 3.68643 13.6434 3.2586C13.4397 2.88228 13.1146 2.57632 12.7147 2.38457C12.2602 2.16659 11.6651 2.16659 10.475 2.16659H4.525C3.33489 2.16659 2.73983 2.16659 2.28527 2.38457C1.88543 2.57632 1.56034 2.88228 1.35661 3.2586C1.125 3.68643 1.125 4.24648 1.125 5.36659V10.9666C1.125 12.0867 1.125 12.6467 1.35661 13.0746C1.56034 13.4509 1.88543 13.7569 2.28527 13.9486C2.73983 14.1666 3.33489 14.1666 4.525 14.1666Z" stroke="#656469" stroke-linecap="round" stroke-linejoin="round"/>
</svg>
